<?xml version="1.0" encoding="utf-8"?>
<!-- Generator: Adobe Illustrator 25.4.1, SVG Export Plug-In . SVG Version: 6.00 Build 0)  -->
<svg version="1.1" id="Layer_1" xmlns="http://www.w3.org/2000/svg" xmlns:xlink="http://www.w3.org/1999/xlink" x="0px" y="0px"
	 viewBox="0 0 393.4 163.8" style="enable-background:new 0 0 393.4 163.8;" xml:space="preserve">
<style type="text/css">
	.st0{fill-rule:evenodd;clip-rule:evenodd;fill:#004B87;}
	.st1{fill:#FFB81C;}
	.st2{fill-rule:evenodd;clip-rule:evenodd;fill:#FFB81C;}
	.st3{fill-rule:evenodd;clip-rule:evenodd;fill:#F89C1E;}
	.st4{fill:#004B87;}
</style>
<g id="Layer_2_00000051356854270089082380000003397444068033404566_">
	<g id="Layer_1-2">
		<g>
			<polygon class="st0" points="183.5,120.1 187.7,97.9 189.9,97.9 186,118.1 195.2,118.1 194.8,120.1 			"/>
			<path class="st0" d="M206,112.5c0-1.4,0.3-2.8,0.8-4.1c1.5-3.4,4.8-5.5,8.5-5.5c4.3-0.1,8,3.3,8.1,7.6c0,0.2,0,0.3,0,0.5
				c0,1.3-0.2,2.6-0.7,3.8c-0.5,1.2-1.2,2.3-2.1,3.2c-0.9,0.9-1.9,1.5-3,2c-1.2,0.5-2.5,0.7-3.7,0.7c-2.1,0.1-4.2-0.8-5.7-2.3
				C206.8,116.7,205.9,114.6,206,112.5z M215.1,104.7c-1.9,0-3.8,0.8-5,2.2c-1.4,1.6-2.1,3.6-2,5.7c0,1.6,0.5,3.2,1.6,4.3
				c1.1,1.1,2.5,1.8,4.1,1.8c0.8,0,1.7-0.1,2.5-0.4c0.8-0.3,1.5-0.7,2.1-1.2c0.9-0.8,1.6-1.7,2-2.8c0.5-1.1,0.7-2.2,0.7-3.4
				c0.1-1.6-0.5-3.3-1.7-4.4C218.3,105.3,216.8,104.7,215.1,104.7z"/>
			<path class="st0" d="M249.1,111c0.1-1.7-0.5-3.3-1.6-4.5c-1.1-1.2-2.6-1.8-4.2-1.8c-0.8,0-1.6,0.1-2.4,0.4
				c-0.8,0.3-1.4,0.7-2.1,1.2c-0.9,0.7-1.5,1.7-2,2.7c-0.5,1.1-0.7,2.2-0.7,3.4c-0.1,1.6,0.5,3.2,1.7,4.4c1.2,1.1,2.7,1.8,4.4,1.7
				c1.9,0,3.7-0.8,4.9-2.2C248.4,115,249.1,113,249.1,111z M252.6,103.5l-2.7,14c0,0.1-0.1,0.3-0.1,0.5c-0.3,2-0.9,3.9-1.8,5.7
				c-0.6,1-1.5,1.7-2.6,2.2c-1.2,0.5-2.6,0.8-3.9,0.8c-1.9,0.1-3.7-0.4-5.3-1.5c-1.3-1-2.2-2.4-2.4-4.1h1.9c0.3,1.1,0.9,2.1,1.9,2.7
				c1,0.7,2.2,1,3.5,0.9c1.6,0.1,3.2-0.4,4.5-1.5c1.2-1.3,1.9-2.9,2-4.6c-0.8,0.6-1.7,1-2.6,1.3c-1,0.3-1.9,0.4-2.9,0.4
				c-4.3,0.1-7.9-3.2-8-7.5c0-0.2,0-0.4,0-0.6c0-1.3,0.2-2.6,0.7-3.8c0.5-1.2,1.2-2.3,2.1-3.2c0.8-0.8,1.8-1.5,2.9-1.9
				c1.1-0.4,2.3-0.7,3.5-0.7c1.4,0,2.8,0.3,4.1,0.9c1.1,0.6,2.1,1.5,2.7,2.7l0.6-3L252.6,103.5z"/>
			<path class="st0" d="M267,103.4l-3.2,16.8h-2l3.3-16.8L267,103.4z M265.4,101.7l0.7-3.8h2l-0.7,3.8H265.4z"/>
			<path class="st0" d="M276.8,115.4h2v0.1c0,0.8,0.2,1.7,0.8,2.3c0.5,0.6,1.2,0.9,2,0.9c0.8,0,1.5-0.3,2-0.9
				c0.6-0.6,0.9-1.3,0.9-2.1c0-1-0.8-2.2-2.5-3.3l-0.1-0.1c-1-0.6-2-1.4-2.7-2.4c-0.4-0.7-0.7-1.5-0.6-2.3c0-1.2,0.4-2.4,1.3-3.3
				c0.9-0.9,2-1.4,3.3-1.4c1.1-0.1,2.2,0.3,3,1.1c0.8,0.8,1.2,1.8,1.1,2.9c0,0.1,0,0.3,0,0.4c0,0.1,0,0.2,0,0.2h-2
				c0-0.1,0-0.1,0-0.2c0-0.1,0-0.2,0-0.2c0-0.6-0.2-1.2-0.6-1.7c-0.4-0.4-1-0.7-1.6-0.7c-1.3-0.1-2.4,1-2.5,2.3c0,0.1,0,0.1,0,0.2
				c0,0.9,0.9,2,2.6,3.2l0.4,0.3l0,0c2,1.4,3.1,2.9,3.1,4.4c0.1,1.5-0.5,2.9-1.5,3.9c-1,1-2.3,1.6-3.8,1.5c-1.2,0-2.4-0.4-3.3-1.3
				c-0.9-0.9-1.3-2.1-1.3-3.3v-0.4C276.8,115.5,276.8,115.4,276.8,115.4z"/>
			<polygon class="st0" points="298.2,120.1 301.1,105.2 297.5,105.2 297.9,103.4 301.4,103.4 302.5,97.9 304.5,97.9 303.4,103.4 
				307,103.4 306.6,105.2 303.1,105.2 300.2,120.1 			"/>
			<path class="st0" d="M319.9,103.4l-3.2,16.8h-2l3.3-16.8H319.9z M318.3,101.7l0.7-3.8h2l-0.7,3.8H318.3z"/>
			<path class="st0" d="M347.1,114.2c-0.6,1.9-1.8,3.5-3.4,4.7c-1.6,1.1-3.5,1.7-5.4,1.6c-4.3,0.2-7.9-3.1-8.1-7.4
				c0-0.2,0-0.5,0-0.7c0-1.4,0.3-2.8,0.8-4.1c0.6-1.3,1.4-2.4,2.4-3.3c0.8-0.7,1.7-1.3,2.8-1.7c1.1-0.4,2.2-0.6,3.3-0.6
				c1.9-0.1,3.8,0.6,5.3,1.8c1.5,1.2,2.4,3,2.7,4.9h-2.2c-0.2-1.4-0.8-2.6-1.9-3.5c-1.1-0.9-2.5-1.3-3.9-1.3c-1.9,0-3.8,0.8-5.1,2.2
				c-1.4,1.5-2.1,3.4-2,5.4c-0.1,1.7,0.5,3.3,1.6,4.6c1.1,1.2,2.7,1.8,4.3,1.8c1.4,0,2.7-0.4,3.9-1.2c1.2-0.8,2.1-2,2.6-3.3
				L347.1,114.2z"/>
			<path class="st0" d="M357.4,115.4h2v0.1c0,0.8,0.2,1.7,0.8,2.3c0.5,0.6,1.2,0.9,2,0.9c0.8,0,1.5-0.3,2-0.9
				c0.6-0.6,0.9-1.3,0.9-2.1c0-1-0.9-2.2-2.5-3.3l-0.1-0.1c-1-0.6-2-1.4-2.7-2.4c-0.4-0.7-0.7-1.5-0.6-2.3c0-1.2,0.4-2.4,1.3-3.3
				c0.9-0.9,2-1.4,3.3-1.4c1.1-0.1,2.2,0.3,3,1.1c0.8,0.8,1.2,1.8,1.1,2.9c0,0.1,0,0.3,0,0.4c0,0.1,0,0.2,0,0.2h-2c0,0,0-0.1,0-0.2
				s0-0.2,0-0.2c0-0.6-0.2-1.2-0.6-1.7c-0.4-0.4-0.9-0.7-1.5-0.7c-0.7,0-1.3,0.2-1.8,0.7c-0.5,0.5-0.7,1.1-0.7,1.8
				c0,0.9,0.9,2,2.6,3.2l0.4,0.3l0,0c2,1.4,3.1,2.9,3.1,4.4c0.1,1.4-0.5,2.9-1.5,3.9c-1,1-2.4,1.6-3.8,1.5c-1.2,0-2.4-0.4-3.3-1.3
				c-0.9-0.9-1.3-2.1-1.3-3.3v-0.4C357.4,115.5,357.4,115.4,357.4,115.4z"/>
		</g>
		<rect x="155.9" y="84" class="st1" width="237.4" height="2.9"/>
		<polygon class="st2" points="23.5,47.4 39.9,57 78.6,34.1 78.6,14.7 		"/>
		<polygon class="st3" points="111.8,19.4 94.5,30.6 94.5,53.3 111.8,63.1 		"/>
		<polygon class="st3" points="128.2,110.8 144.9,100 78.5,60.3 61.4,71 		"/>
		<polygon class="st0" points="144.9,100 144.9,83.9 128.1,73.5 128.1,30.1 111.8,19.4 111.8,63.1 94.6,52.4 94.6,8.9 78.2,0 
			23.5,32.3 23.5,47.4 61.5,25.4 61.5,71.2 78.5,60.3 		"/>
		<polygon class="st2" points="111.8,19.3 94.5,30.5 94.5,53.2 111.8,63 		"/>
		<polygon class="st2" points="128.3,110.8 144.9,99.9 78.5,60.2 61.6,71.1 		"/>
		<polygon class="st2" points="121.4,116.4 105,106.8 66.3,129.7 66.3,149.1 		"/>
		<polygon class="st2" points="33.1,144.5 50.4,133.2 50.4,110.5 33.1,100.8 		"/>
		<polygon class="st2" points="16.6,53 0,63.8 66.4,103.6 83.5,92.8 		"/>
		<polygon class="st0" points="0,63.8 0,79.9 16.7,90.3 16.7,133.7 33.1,144.5 33.1,100.8 50.3,111.4 50.3,154.9 66.7,163.8 
			121.4,131.6 121.4,116.4 83.4,138.4 83.4,92.6 66.4,103.6 		"/>
		<polygon class="st0" points="178.5,30.4 178.5,38.2 171.1,38.2 171.1,73.5 163.3,73.5 163.3,38.2 156,38.2 156,30.4 		"/>
		<path class="st0" d="M207.5,33.2l-14.1,4l-2.4-5.1l13.9-4.6L207.5,33.2z M188,54.4h18.7l-0.2-1.3c-0.5-1.9-1.7-3.5-3.4-4.5
			c-1.7-1-3.6-1.5-5.5-1.5c-2,0-4,0.5-5.7,1.5c-1.8,1-3.1,2.6-3.6,4.6L188,54.4z M188.3,60.5c1.2,4.4,4.3,6.6,9.1,6.6
			c3.1,0,6.1-1.3,8.2-3.6h7.8c-0.4,0.9-0.8,1.8-1.3,2.6c-1.6,2.5-3.7,4.5-6.3,5.9c-6.5,3.6-14.5,2.7-20-2.3
			c-3.5-3.2-5.4-7.7-5.3-12.4c-0.1-4.6,1.8-9.1,5.1-12.3c3.2-3.3,7.6-5.1,12.2-5c4.6-0.1,8.9,1.7,12.1,5c3.2,3.3,5,7.7,4.9,12.2
			l-0.1,1.8l-0.2,1.5L188.3,60.5z"/>
		<path class="st0" d="M226,40.7v3.9c1.2-2.4,3.6-4.1,6.3-4.5l1.3-0.2v7.8c-1.2,0.1-2.5,0.5-3.6,0.9c-2.4,1-3.6,3.1-3.5,6.4v18.3
			h-7.9V40.7H226z"/>
		<path class="st0" d="M246.1,40.7v3.8c0.4-0.7,0.9-1.4,1.4-2c0.7-0.8,1.6-1.5,2.6-1.8c1.1-0.5,2.3-0.7,3.6-0.7c2.1,0,4.1,0.7,5.6,2
			c1.5,1.4,2.5,3.2,3.1,5.2c1.6-4.8,4.8-7.2,9.6-7.2c3.6-0.1,7.1,1.2,9.7,3.7c1.6,1.5,2.7,3.5,3.1,5.6c0.4,2.1,0.5,4.3,0.5,6.5v17.7
			h-7.9V55.8v-2.4c0-1.5-0.6-2.9-1.7-4c-1.1-1-2.5-1.6-4-1.6c-3.5,0-5.5,2-5.9,6c-0.1,0.7-0.1,1.5-0.1,2.2v17.5h-7.9V55.9l0-2.3
			c0-1.5-0.6-3-1.7-4.1c-2.2-2.2-5.8-2.2-8.1,0c0,0-0.1,0.1-0.1,0.1c-1,1.1-1.6,2.6-1.8,4.1c-0.1,0.8-0.2,1.5-0.1,2.3v17.5h-7.9
			V40.7H246.1z"/>
		<path class="st0" d="M299.1,29.9v7.9h-7.9v-7.9H299.1z M299.1,40.7v32.7h-7.9V40.7L299.1,40.7z"/>
		<path class="st0" d="M304.9,40.7h7.9v2.9c0.5-0.5,1.1-0.9,1.6-1.4c1.9-1.5,4.4-2.3,6.8-2.3c4.1-0.1,7.9,2,10.1,5.5
			c1.5,2.2,2.3,6.1,2.3,11.6v16.4h-7.9V57.2c0-3.2-0.3-5.3-0.8-6.3c-1-2-3.1-3.2-5.3-3c-2.5,0-4.4,0.8-5.5,2.4
			c-0.8,1.2-1.2,2.6-1.2,4c-0.1,1-0.2,1.9-0.1,2.9v16.3h-7.9L304.9,40.7z"/>
		<path class="st0" d="M345.2,57.1c-0.1,2.5,1,5,2.9,6.6c1.8,1.7,4.3,2.7,6.8,2.6c2.5,0,5-0.9,6.8-2.6c1.9-1.7,3-4.1,2.9-6.6
			c0.1-3.4-1.8-6.5-4.9-8c-1.5-0.8-3.2-1.3-4.9-1.3c-2.5,0-5,0.9-6.8,2.6C346.2,52.2,345.2,54.6,345.2,57.1z M364.1,40.7h7.9v32.7
			h-7.8v-3.5c-3.1,2.9-6.4,4.3-9.9,4.2c-4.6,0.1-8.9-1.8-12-5.2c-3.2-3.3-5-7.7-4.9-12.2c-0.1-4.7,1.8-9.2,5.2-12.4
			c3-2.9,7.1-4.5,11.3-4.4c2.2,0,4.3,0.4,6.3,1.2c1.6,0.8,3,1.9,4,3.3L364.1,40.7z"/>
		<rect x="377.4" y="30.4" class="st4" width="7.8" height="43.1"/>
	</g>
</g>
</svg>
